<?xml version="1.0" encoding="UTF-8"?>
<svg version="1.1" xmlns="http://www.w3.org/2000/svg" width="300" height="108">
<path d="M0 0 C99 0 198 0 300 0 C300 35.64 300 71.28 300 108 C201 108 102 108 0 108 C0 72.36 0 36.72 0 0 Z " fill="#FBFBFB" transform="translate(0,0)"/>
<path d="M0 0 C3.48904752 3.44078006 5.38777272 6.24056827 5.7265625 11.19921875 C5.26968909 17.04899006 2.61409277 20.86341813 -1.0859375 25.26171875 C-1.60800781 25.90625 -2.13007813 26.55078125 -2.66796875 27.21484375 C-7.11387139 32.15250537 -12.44030346 35.70362162 -17.9609375 39.32421875 C-19.10429565 40.07711182 -19.10429565 40.07711182 -20.27075195 40.84521484 C-20.99093506 41.3036377 -21.71111816 41.76206055 -22.453125 42.234375 C-23.10394043 42.64953369 -23.75475586 43.06469238 -24.42529297 43.49243164 C-24.97330566 43.74629639 -25.52131836 44.00016113 -26.0859375 44.26171875 C-26.7459375 43.93171875 -27.4059375 43.60171875 -28.0859375 43.26171875 C-27.43367187 42.78863281 -26.78140625 42.31554688 -26.109375 41.828125 C-19.45886628 36.79610292 -14.81983058 31.72950492 -11.0859375 24.26171875 C-10.68195408 19.87228348 -10.59370705 15.70559475 -12.0234375 11.51171875 C-20.9167379 1.80993649 -34.23729351 -1.29020647 -46.6484375 -3.98828125 C-47.7619458 -4.23312256 -47.7619458 -4.23312256 -48.89794922 -4.48291016 C-62.0335868 -7.15442059 -75.44308082 -6.92465692 -88.78613281 -6.92358398 C-91.81589903 -6.92576681 -94.84529799 -6.94397341 -97.875 -6.96289062 C-109.44872045 -6.99664911 -120.63343726 -6.37680097 -132.0859375 -4.73828125 C-134.29251592 -4.46249814 -136.49951804 -4.1900728 -138.70703125 -3.921875 C-140.64596617 -3.67421488 -142.5847728 -3.42554787 -144.5234375 -3.17578125 C-145.52697266 -3.05009766 -146.53050781 -2.92441406 -147.56445312 -2.79492188 C-148.51900391 -2.67181641 -149.47355469 -2.54871094 -150.45703125 -2.421875 C-151.30193115 -2.31415771 -152.14683105 -2.20644043 -153.01733398 -2.09545898 C-155.14024903 -1.83133681 -155.14024903 -1.83133681 -157.0859375 -0.73828125 C-158.95808117 -0.48684448 -160.83395958 -0.26314007 -162.7109375 -0.05078125 C-172.75788893 1.32537173 -182.49005517 3.9725309 -192.28955078 6.53320312 C-194.72794942 7.16845557 -197.16924435 7.78924441 -199.61328125 8.40234375 C-205.81161189 9.98810956 -211.72265283 11.75604378 -217.61328125 14.25390625 C-222.34458678 16.18230566 -227.22944488 17.68269519 -232.0859375 19.26171875 C-234.08640224 19.92698958 -236.08652983 20.59327772 -238.0859375 21.26171875 C-237.8178125 22.14859375 -237.5496875 23.03546875 -237.2734375 23.94921875 C-237.0859375 27.26171875 -237.0859375 27.26171875 -238.7109375 30.13671875 C-242.60755315 32.59014342 -243.92221191 32.38626443 -248.3984375 32.13671875 C-253.30607639 31.93686015 -255.88711111 32.13444405 -259.6484375 35.38671875 C-262.55514333 38.42193158 -265.01342878 41.59497256 -267.0859375 45.26171875 C-267.5190625 46.02484375 -267.9521875 46.78796875 -268.3984375 47.57421875 C-269.61475883 52.3289294 -269.38791037 56.84994613 -267.02734375 61.22265625 C-257.30061521 73.84260433 -237.63726879 75.67980283 -222.91137695 77.63769531 C-213.40645667 78.75895546 -203.89218252 78.67004534 -194.3359375 78.57421875 C-193.32891785 78.56828705 -192.32189819 78.56235535 -191.28436279 78.5562439 C-160.64241892 78.37338567 -129.89347482 75.83586214 -100.16796875 67.9609375 C-97.34388774 67.32023978 -94.96588313 67.11528084 -92.0859375 67.26171875 C-91.0959375 65.28171875 -91.0959375 65.28171875 -90.0859375 63.26171875 C-88.4359375 63.59171875 -86.7859375 63.92171875 -85.0859375 64.26171875 C-84.4609375 66.13671875 -84.4609375 66.13671875 -84.0859375 68.26171875 C-86.0859375 70.26171875 -86.0859375 70.26171875 -88.23046875 70.3515625 C-89.11089844 70.30128906 -89.99132812 70.25101562 -90.8984375 70.19921875 C-95.08429358 70.1156 -98.66518716 70.49815254 -102.71484375 71.5390625 C-110.93245054 73.52294497 -119.22551615 74.97730694 -127.55224609 76.42382812 C-130.21429444 76.88730321 -132.87472916 77.35934915 -135.53515625 77.83203125 C-137.26293039 78.13463146 -138.99079215 78.43673189 -140.71875 78.73828125 C-141.49614532 78.87682526 -142.27354065 79.01536926 -143.07449341 79.15811157 C-153.11755095 80.88556924 -163.09771527 81.42937467 -173.27734375 81.5 C-174.42089828 81.50807175 -175.56445282 81.51614349 -176.74266052 81.52445984 C-179.15712001 81.53821654 -181.57159826 81.54897583 -183.98608398 81.55688477 C-186.40085756 81.56831393 -188.81560774 81.58861844 -191.23022461 81.6184082 C-204.33801135 81.77945521 -217.13378203 81.46065377 -230.11328125 79.4921875 C-231.14288467 79.33647781 -232.1724881 79.18076813 -233.23329163 79.02033997 C-246.03488173 76.86473679 -260.52736029 73.0904755 -269.2734375 62.88671875 C-272.43624051 58.36626169 -272.96246733 55.69620368 -272.0859375 50.26171875 C-269.82767944 42.82275102 -264.87997711 37.17400216 -258.5859375 32.69921875 C-257.7609375 31.89484375 -256.9359375 31.09046875 -256.0859375 30.26171875 C-256.2509375 29.10671875 -256.4159375 27.95171875 -256.5859375 26.76171875 C-256.7509375 25.60671875 -256.9159375 24.45171875 -257.0859375 23.26171875 C-254.47816166 20.03631178 -252.92738452 18.5379358 -248.8203125 17.921875 C-245.82091898 17.87718205 -243.099689 17.90925593 -240.24829102 18.90063477 C-237.34904336 19.38477017 -235.96650416 18.59284496 -233.33984375 17.3125 C-232.42614014 16.8781665 -231.51243652 16.44383301 -230.57104492 15.99633789 C-229.60658447 15.52703857 -228.64212402 15.05773926 -227.6484375 14.57421875 C-220.52466397 11.21471522 -213.64505905 8.15157926 -206.03515625 6.078125 C-203.62075626 5.40976792 -201.27438516 4.67112673 -198.90234375 3.87109375 C-149.52590262 -12.74158858 -45.95556756 -38.2963063 0 0 Z " fill="#311F72" transform="translate(283.0859375,20.73828125)"/>
<path d="M0 0 C-1.32 0.66 -2.64 1.32 -4 2 C-3.01 3.485 -3.01 3.485 -2 5 C-7.02266703 6.2123679 -11.9322086 7.13461621 -17.0625 7.75 C-26.95636672 9.10209025 -36.55447118 11.75010051 -46.20361328 14.27148438 C-48.64201192 14.90673682 -51.08330685 15.52752566 -53.52734375 16.140625 C-59.72567439 17.72639081 -65.63671533 19.49432503 -71.52734375 21.9921875 C-76.25864928 23.92058691 -81.14350738 25.42097644 -86 27 C-88.00046474 27.66527083 -90.00059233 28.33155897 -92 29 C-91.731875 29.886875 -91.46375 30.77375 -91.1875 31.6875 C-91 35 -91 35 -92.625 37.875 C-96.52161565 40.32842467 -97.83627441 40.12454568 -102.3125 39.875 C-107.22013889 39.6751414 -109.80117361 39.8727253 -113.5625 43.125 C-116.46920583 46.16021283 -118.92749128 49.33325381 -121 53 C-121.433125 53.763125 -121.86625 54.52625 -122.3125 55.3125 C-123.52882133 60.06721065 -123.30197287 64.58822738 -120.94140625 68.9609375 C-111.21467771 81.58088558 -91.55133129 83.41808408 -76.82543945 85.37597656 C-67.32051917 86.49723671 -57.80624502 86.40832659 -48.25 86.3125 C-47.24298035 86.3065683 -46.23596069 86.3006366 -45.19842529 86.29452515 C-14.55648142 86.11166692 16.19246268 83.57414339 45.91796875 75.69921875 C48.74204976 75.05852103 51.12005437 74.85356209 54 75 C54.99 73.02 54.99 73.02 56 71 C57.65 71.33 59.3 71.66 61 72 C61.625 73.875 61.625 73.875 62 76 C60 78 60 78 57.85546875 78.08984375 C56.97503906 78.03957031 56.09460938 77.98929687 55.1875 77.9375 C51.00164392 77.85388125 47.42075034 78.23643379 43.37109375 79.27734375 C35.15348696 81.26122622 26.86042135 82.71558819 18.53369141 84.16210938 C15.87164306 84.62558446 13.21120834 85.0976304 10.55078125 85.5703125 C8.82300711 85.87291271 7.09514535 86.17501314 5.3671875 86.4765625 C4.58979218 86.61510651 3.81239685 86.75365051 3.01144409 86.89639282 C-7.03161345 88.62385049 -17.01177777 89.16765592 -27.19140625 89.23828125 C-28.33496078 89.246353 -29.47851532 89.25442474 -30.65672302 89.26274109 C-33.07118251 89.27649779 -35.48566076 89.28725708 -37.90014648 89.29516602 C-40.31492006 89.30659518 -42.72967024 89.32689969 -45.14428711 89.35668945 C-58.25207385 89.51773646 -71.04784453 89.19893502 -84.02734375 87.23046875 C-85.05694717 87.07475906 -86.0865506 86.91904938 -87.14735413 86.75862122 C-99.94894423 84.60301804 -114.44142279 80.82875675 -123.1875 70.625 C-126.35030301 66.10454294 -126.87652983 63.43448493 -126 58 C-123.74174194 50.56103227 -118.79403961 44.91228341 -112.5 40.4375 C-111.675 39.633125 -110.85 38.82875 -110 38 C-110.165 36.845 -110.33 35.69 -110.5 34.5 C-110.665 33.345 -110.83 32.19 -111 31 C-108.39222416 27.77459303 -106.84144702 26.27621705 -102.734375 25.66015625 C-99.73498148 25.6154633 -97.0137515 25.64753718 -94.16235352 26.63891602 C-91.26310586 27.12305142 -89.88056666 26.33112621 -87.25390625 25.05078125 C-86.34020264 24.61644775 -85.42649902 24.18211426 -84.48510742 23.73461914 C-83.52064697 23.26531982 -82.55618652 22.79602051 -81.5625 22.3125 C-74.43872647 18.95299647 -67.55912155 15.88986051 -59.94921875 13.81640625 C-57.54569439 13.15105977 -55.21220438 12.4152805 -52.8515625 11.6171875 C-39.70436449 7.19100522 -26.34742247 3.27160225 -12.75 0.5 C-11.92330811 0.32799072 -11.09661621 0.15598145 -10.24487305 -0.02124023 C-6.48408706 -0.74573006 -3.66390935 -1.11324124 0 0 Z " fill="#44357C" transform="translate(137,13)"/>
<path d="M0 0 C1.30453125 -0.03738281 2.6090625 -0.07476562 3.953125 -0.11328125 C9.16591439 0.47128052 12.10480616 2.66730616 15.75 6.3125 C15.9453125 8.4765625 15.9453125 8.4765625 15.875 10.9375 C15.85695312 11.75476562 15.83890625 12.57203125 15.8203125 13.4140625 C15.79710937 14.04054688 15.77390625 14.66703125 15.75 15.3125 C15.09 15.3125 14.43 15.3125 13.75 15.3125 C13.42 16.3025 13.09 17.2925 12.75 18.3125 C12.09 18.3125 11.43 18.3125 10.75 18.3125 C10.75 18.9725 10.75 19.6325 10.75 20.3125 C7.76284862 21.80607569 4.71112064 21.53753435 1.4375 21.5625 C0.12136719 21.58828125 -1.19476563 21.6140625 -2.55078125 21.640625 C-6.40467847 21.29877984 -8.21069652 20.63372628 -11.25 18.3125 C-13.36480682 15.6142982 -14.17463308 13.75528066 -14.75 10.375 C-14.04589925 6.06238288 -12.28907145 4.42393029 -9.25 1.3125 C-6.21843143 -0.20328428 -3.37033386 0.06278073 0 0 Z " fill="#F5F5F5" transform="translate(160.25,46.6875)"/>
<path d="M0 0 C0.33 0.66 0.66 1.32 1 2 C1.66 2.33 2.32 2.66 3 3 C2.29875 3.391875 1.5975 3.78375 0.875 4.1875 C-5.96088001 8.49707653 -11.93386154 13.92327692 -14 22 C-14.24985558 26.89531851 -13.59351859 30.81740364 -10.5625 34.75 C2.61117516 48.23510956 28.62021318 49.9398705 46.41819763 50.33470154 C51.19638061 50.38319248 55.97191374 50.36041293 60.75 50.3125 C61.75701965 50.3065683 62.76403931 50.3006366 63.80157471 50.29452515 C94.44351858 50.11166692 125.19246268 47.57414339 154.91796875 39.69921875 C157.74204976 39.05852103 160.12005437 38.85356209 163 39 C163.66 37.68 164.32 36.36 165 35 C166.65 35.33 168.3 35.66 170 36 C170.625 37.875 170.625 37.875 171 40 C169 42 169 42 166.85546875 42.08984375 C165.97503906 42.03957031 165.09460938 41.98929688 164.1875 41.9375 C160.00164392 41.85388125 156.42075034 42.23643379 152.37109375 43.27734375 C144.15348696 45.26122622 135.86042135 46.71558819 127.53369141 48.16210938 C124.87164306 48.62558446 122.21120834 49.0976304 119.55078125 49.5703125 C117.82300711 49.87291271 116.09514535 50.17501314 114.3671875 50.4765625 C113.58979218 50.61510651 112.81239685 50.75365051 112.01144409 50.89639282 C101.96838655 52.62385049 91.98822223 53.16765592 81.80859375 53.23828125 C80.66503922 53.246353 79.52148468 53.25442474 78.34327698 53.26274109 C75.92881749 53.27649779 73.51433924 53.28725708 71.09985352 53.29516602 C68.68507994 53.30659518 66.27032976 53.32689969 63.85571289 53.35668945 C50.74792615 53.51773646 37.95215547 53.19893502 24.97265625 51.23046875 C23.94305283 51.07475906 22.9134494 50.91904938 21.85264587 50.75862122 C9.05105577 48.60301804 -5.44142279 44.82875675 -14.1875 34.625 C-17.35030301 30.10454294 -17.87652983 27.43448493 -17 22 C-14.35772881 13.29604783 -7.89150853 7.57884024 -1 2 C-0.67 1.34 -0.34 0.68 0 0 Z " fill="#7D7B7B" transform="translate(28,49)"/>
<path d="M0 0 C14 -0.57142857 14 -0.57142857 19 4 C18.835 4.763125 18.67 5.52625 18.5 6.3125 C17.90854604 9.03596236 17.90854604 9.03596236 18 12 C18.66 12.66 19.32 13.32 20 14 C20 16.4375 20 16.4375 19 19 C13.53711277 23.40065915 6.62412655 22.20277938 0 22 C0 14.74 0 7.48 0 0 Z " fill="#615D5B" transform="translate(67,46)"/>
<path d="M0 0 C1.98 0 3.96 0 6 0 C7.98 4.62 9.96 9.24 12 14 C12.66 14 13.32 14 14 14 C16.31 9.38 18.62 4.76 21 0 C22.65 0 24.3 0 26 0 C26.67617524 2.37265061 27.34108226 4.74755355 28 7.125 C28.19078125 7.79015625 28.3815625 8.4553125 28.578125 9.140625 C29.69208455 13.1986205 30.20950232 16.79685974 30 21 C28.35 21 26.7 21 25 21 C23.67321483 18.34642965 23.40467993 15.8026609 22.9375 12.875 C22.76089844 11.77929688 22.58429688 10.68359375 22.40234375 9.5546875 C22.20318359 8.29011719 22.20318359 8.29011719 22 7 C19.60926851 9.93189994 18.15892693 12.72143288 16.8125 16.25 C16.46832031 17.14203125 16.12414062 18.0340625 15.76953125 18.953125 C15.38861328 19.96632813 15.38861328 19.96632813 15 21 C13.02 21 11.04 21 9 21 C8.74605469 20.32453125 8.49210938 19.6490625 8.23046875 18.953125 C7.88628906 18.06109375 7.54210937 17.1690625 7.1875 16.25 C6.85105469 15.36828125 6.51460937 14.4865625 6.16796875 13.578125 C4.93915263 10.61830857 4.93915263 10.61830857 2 7 C1.01 11.62 0.02 16.24 -1 21 C-1.99 21 -2.98 21 -4 21 C-2.87723429 13.94090922 -1.62436599 6.96156852 0 0 Z " fill="#3A3533" transform="translate(183,47)"/>
<path d="M0 0 C1.65 0 3.3 0 5 0 C6.00696568 2.10084209 7.0053589 4.20579489 8 6.3125 C8.556875 7.48425781 9.11375 8.65601563 9.6875 9.86328125 C11 13 11 13 11 16 C11.66 16 12.32 16 13 16 C13.10183594 15.29488281 13.20367187 14.58976562 13.30859375 13.86328125 C14.09914812 10.58940355 15.40523734 8.11415533 17.0625 5.1875 C17.88427734 3.72376953 17.88427734 3.72376953 18.72265625 2.23046875 C19.14417969 1.49441406 19.56570312 0.75835937 20 0 C21.65 0 23.3 0 25 0 C25.67055285 2.93666226 26.33659053 5.87422359 27 8.8125 C27.19078125 9.64587891 27.3815625 10.47925781 27.578125 11.33789062 C27.75859375 12.14033203 27.9390625 12.94277344 28.125 13.76953125 C28.37636719 14.87711792 28.37636719 14.87711792 28.6328125 16.00708008 C29 18 29 18 29 21 C27.02 21 25.04 21 23 21 C22.80083984 19.62714844 22.80083984 19.62714844 22.59765625 18.2265625 C22.42105469 17.03804687 22.24445313 15.84953125 22.0625 14.625 C21.88847656 13.44164062 21.71445313 12.25828125 21.53515625 11.0390625 C21.16537214 8.09297619 21.16537214 8.09297619 20 6 C19.5875 7.175625 19.175 8.35125 18.75 9.5625 C17.22186825 13.66432733 15.26112467 17.25744882 13 21 C11.35 21 9.7 21 8 21 C7.73445312 20.32453125 7.46890625 19.6490625 7.1953125 18.953125 C6.84210938 18.06109375 6.48890625 17.1690625 6.125 16.25 C5.77695313 15.36828125 5.42890625 14.4865625 5.0703125 13.578125 C3.45757725 8.99261413 3.45757725 8.99261413 0 6 C-0.185625 7.7634375 -0.185625 7.7634375 -0.375 9.5625 C-0.86435935 13.54120426 -1.8055205 17.17766559 -3 21 C-3.66 21 -4.32 21 -5 21 C-4.5003731 13.50559651 -2.56235522 7.04349737 0 0 Z " fill="#302B29" transform="translate(221,47)"/>
<path d="M0 0 C1.30453125 -0.03738281 2.6090625 -0.07476562 3.953125 -0.11328125 C9.16591439 0.47128052 12.10480616 2.66730616 15.75 6.3125 C15.9453125 8.4765625 15.9453125 8.4765625 15.875 10.9375 C15.85695312 11.75476562 15.83890625 12.57203125 15.8203125 13.4140625 C15.79710937 14.04054688 15.77390625 14.66703125 15.75 15.3125 C15.09 15.3125 14.43 15.3125 13.75 15.3125 C13.42 16.3025 13.09 17.2925 12.75 18.3125 C12.09 18.3125 11.43 18.3125 10.75 18.3125 C10.75 18.9725 10.75 19.6325 10.75 20.3125 C7.76284862 21.80607569 4.71112064 21.53753435 1.4375 21.5625 C0.12136719 21.58828125 -1.19476563 21.6140625 -2.55078125 21.640625 C-6.40467847 21.29877984 -8.21069652 20.63372628 -11.25 18.3125 C-13.36480682 15.6142982 -14.17463308 13.75528066 -14.75 10.375 C-14.04589925 6.06238288 -12.28907145 4.42393029 -9.25 1.3125 C-6.21843143 -0.20328428 -3.37033386 0.06278073 0 0 Z M-8.25 5.3125 C-9.19389305 9.78972721 -8.74929137 13.2487923 -6.8125 17.375 C-3.55738214 19.83618667 -1.45152319 19.98589101 2.5546875 19.71484375 C6.11922367 19.06155687 7.58376517 18.24739881 9.75 15.3125 C10.44796447 11.83998256 10.45361001 8.78441171 9.75 5.3125 C7.62730367 2.52646107 6.24948502 1.5966766 2.8125 0.9453125 C-1.99236591 0.63590826 -5.16743434 1.36296275 -8.25 5.3125 Z " fill="#36312F" transform="translate(160.25,46.6875)"/>
<path d="M0 0 C3.125 2.125 3.125 2.125 5 5 C5.06983202 8.49160091 4.67570494 10.18915407 2.4375 12.875 C-1.06190281 14.49010899 -4.20651857 14.47418518 -8 14 C-10.5 13 -10.5 13 -12 12 C-12 11.34 -12 10.68 -12 10 C-12.99 9.67 -13.98 9.34 -15 9 C-14.72608098 5.7129718 -14.18168017 4.21006769 -12 1.6875 C-7.92330604 -0.60564036 -4.57615056 -0.94992295 0 0 Z " fill="#342373" transform="translate(41,39)"/>
<path d="M0 0 C0.99 0.66 1.98 1.32 3 2 C2.26475098 2.19110352 1.52950195 2.38220703 0.77197266 2.57910156 C-2.61212976 3.46274307 -5.99353998 4.35630237 -9.375 5.25 C-10.53128906 5.55035156 -11.68757813 5.85070312 -12.87890625 6.16015625 C-19.05089 7.79904459 -24.96142157 9.63690987 -30.85107422 12.10742188 C-33.64564561 13.26817546 -36.49314562 14.20558801 -39.375 15.125 C-43.35337419 16.38653057 -43.35337419 16.38653057 -47.1015625 18.1796875 C-49.48991649 19.21169231 -50.56244478 18.7142486 -53 18 C-42.8316813 13.04168618 -32.65878076 8.46248245 -21.98486328 4.70117188 C-20.62925358 4.22228982 -19.27614466 3.73628429 -17.92529297 3.24414062 C-15.89221835 2.50345598 -13.85370873 1.78042328 -11.8125 1.0625 C-10.62269531 0.64097656 -9.43289062 0.21945313 -8.20703125 -0.21484375 C-4.90069356 -1.02431254 -3.19587501 -1.06529167 0 0 Z " fill="#3B2C75" transform="translate(96,23)"/>
<path d="M0 0 C1.30324219 -0.00386719 1.30324219 -0.00386719 2.6328125 -0.0078125 C4.875 0.125 4.875 0.125 6.875 1.125 C6.875 1.785 6.875 2.445 6.875 3.125 C6.13894531 3.07859375 5.40289062 3.0321875 4.64453125 2.984375 C-1.53778079 2.74145624 -1.53778079 2.74145624 -7.3125 4.6875 C-9.38965343 7.09124915 -9.38965343 7.09124915 -9.6875 10.5625 C-9.00227017 14.90228891 -8.67298379 16.46401216 -5.125 19.125 C-1.09192233 19.54332455 2.83568181 19.41080082 6.875 19.125 C6.875 19.785 6.875 20.445 6.875 21.125 C1.75664807 22.83111731 -3.78940413 22.73428588 -9 21.375 C-11.75125056 19.75661732 -13.31003722 18.81383374 -15.125 16.125 C-15.81221508 12.65368283 -15.87604952 9.58879554 -15.125 6.125 C-11.38775674 0.79641445 -6.07368359 -0.0181304 0 0 Z " fill="#312C2A" transform="translate(137.125,45.875)"/>
<path d="M0 0 C6.93 0 13.86 0 21 0 C21 0.66 21 1.32 21 2 C18.36 2 15.72 2 13 2 C13 8.27 13 14.54 13 21 C11.02 21 9.04 21 7 21 C7 14.4 7 7.8 7 1 C4.69 1 2.38 1 0 1 C0 0.67 0 0.34 0 0 Z " fill="#45403E" transform="translate(101,47)"/>
<path d="M0 0 C1.32 0 2.64 0 4 0 C4 5.94 4 11.88 4 18 C7.96 17.505 7.96 17.505 12 17 C12.15149298 13.37114676 12.15149298 13.37114676 11 10 C11.99 10 12.98 10 14 10 C13.67 9.34 13.34 8.68 13 8 C15.46800047 9.15173355 17.04783565 10.04783565 19 12 C18.8125 14.5 18.8125 14.5 18 17 C14.31602884 19.45598077 11.55276192 19.2271532 7.3125 19.125 C4.899375 19.08375 2.48625 19.0425 0 19 C0 12.73 0 6.46 0 0 Z " fill="#1E1815" transform="translate(68,48)"/>
<path d="M0 0 C2.475 0.495 2.475 0.495 5 1 C5.625 2.875 5.625 2.875 6 5 C4 7 4 7 1.85546875 7.08984375 C0.97503906 7.03957031 0.09460938 6.98929687 -0.8125 6.9375 C-6.21774294 6.84694825 -10.83231859 7.75376177 -16.0546875 9.0625 C-21.1449056 10.31130017 -26.28808474 11.28043952 -31.4375 12.25 C-32.38536377 12.43723633 -33.33322754 12.62447266 -34.30981445 12.81738281 C-39.16744138 13.71996346 -43.11974206 14.27098537 -48 13 C-48 12.67 -48 12.34 -48 12 C-47.14881592 11.86424561 -46.29763184 11.72849121 -45.4206543 11.58862305 C-42.20858653 11.07337519 -38.99748851 10.5527095 -35.78686523 10.02856445 C-34.40732453 9.80444323 -33.02744841 9.58237511 -31.6472168 9.36254883 C-24.08485842 8.15663698 -16.6724025 6.82995879 -9.34301758 4.56176758 C-6.81992916 3.95682578 -4.58511599 3.90208547 -2 4 C-1.34 2.68 -0.68 1.36 0 0 Z " fill="#7E7C7B" transform="translate(193,84)"/>
<path d="M0 0 C0.33 0.66 0.66 1.32 1 2 C1.66 2.33 2.32 2.66 3 3 C2.29875 3.391875 1.5975 3.78375 0.875 4.1875 C-5.96088001 8.49707653 -11.93386154 13.92327692 -14 22 C-14.25175213 26.93247689 -13.59170116 30.81666908 -10.5 34.75 C-6.92905509 38.48642772 -2.61737918 40.77339715 2 43 C-1 44 -1 44 -3.26953125 43.06640625 C-9.08207609 39.62887973 -14.00970262 36.22685455 -17 30 C-18.21146952 24.67564235 -16.83730154 19.57564826 -14 15 C-10.19292849 9.98158755 -5.87520654 5.94659577 -1 2 C-0.67 1.34 -0.34 0.68 0 0 Z " fill="#5F5E5C" transform="translate(28,49)"/>
<path d="M0 0 C1.65 0 3.3 0 5 0 C5.67617524 2.37265061 6.34108226 4.74755355 7 7.125 C7.19078125 7.79015625 7.3815625 8.4553125 7.578125 9.140625 C8.69208455 13.1986205 9.20950232 16.79685974 9 21 C7.35 21 5.7 21 4 21 C2.47893366 17.95786733 2.62570662 14.71952428 2.4375 11.375 C2.39431641 10.66859375 2.35113281 9.9621875 2.30664062 9.234375 C2.20055249 7.48981463 2.09977111 5.74493303 2 4 C1.34 4 0.68 4 0 4 C0 2.68 0 1.36 0 0 Z " fill="#3E3937" transform="translate(204,47)"/>
<path d="M0 0 C1.98 0.495 1.98 0.495 4 1 C4.67099984 3.60311992 5.33695338 6.20735398 6 8.8125 C6.19078125 9.55048828 6.3815625 10.28847656 6.578125 11.04882812 C7.35262914 14.10535341 8 16.83373478 8 20 C6.02 20 4.04 20 2 20 C1.67 14.39 1.34 8.78 1 3 C0.34 3 -0.32 3 -1 3 C-0.67 2.01 -0.34 1.02 0 0 Z " fill="#3A3634" transform="translate(242,48)"/>
<path d="M0 0 C3.69546741 0.49938749 5.69961604 1.00415112 8 4 C8.29296875 6.26171875 8.29296875 6.26171875 8.1875 8.6875 C8.16042969 9.49574219 8.13335937 10.30398437 8.10546875 11.13671875 C8.07066406 11.75160156 8.03585938 12.36648437 8 13 C7.34 13 6.68 13 6 13 C5.67 13.99 5.34 14.98 5 16 C3.35 16.33 1.7 16.66 0 17 C0.33 16.34 0.66 15.68 1 15 C1.09672832 13.02275939 1.12979903 11.0420994 1.125 9.0625 C1.12757813 8.00160156 1.13015625 6.94070312 1.1328125 5.84765625 C1.12569346 2.92426943 1.12569346 2.92426943 0 0 Z " fill="#342F2D" transform="translate(168,49)"/>
<path d="M0 0 C1.875 1.1875 1.875 1.1875 3 3 C2.57894737 7.42105263 2.57894737 7.42105263 1 9 C-2.4375 9.1875 -2.4375 9.1875 -6 9 C-8 7 -8 7 -8.3125 4.5 C-8.209375 3.675 -8.10625 2.85 -8 2 C-4.76746204 -0.15502531 -3.74849077 -0.46856135 0 0 Z " fill="#756D94" transform="translate(156,72)"/>
<path d="M0 0 C2.5625 0.3125 2.5625 0.3125 4.4375 1.5 C5.5625 3.3125 5.5625 3.3125 5.3125 5.9375 C4.5625 8.3125 4.5625 8.3125 3.5625 9.3125 C0.125 9.5 0.125 9.5 -3.4375 9.3125 C-4.0975 8.6525 -4.7575 7.9925 -5.4375 7.3125 C-5.03038225 3.2413225 -4.47068536 0.57316479 0 0 Z " fill="#716991" transform="translate(184.4375,71.6875)"/>
<path d="M0 0 C1.32 0 2.64 0 4 0 C4 6.6 4 13.2 4 20 C2.68 20 1.36 20 0 20 C0 13.4 0 6.8 0 0 Z " fill="#201A16" transform="translate(93,47)"/>
<path d="M0 0 C-5.30507014 5.30507014 -16.90298412 4.33212249 -24.125 4.8125 C-24.96667725 4.87767822 -25.80835449 4.94285645 -26.67553711 5.01000977 C-29.0703125 5.14453125 -29.0703125 5.14453125 -33 5 C-33.66 4.01 -34.32 3.02 -35 2 C-31.04222159 1.65985722 -27.0837065 1.32915088 -23.125 1 C-22.01640625 0.90460938 -20.9078125 0.80921875 -19.765625 0.7109375 C-13.15802455 0.16678217 -6.62974592 -0.13503301 0 0 Z " fill="#989795" transform="translate(147,97)"/>
<path d="M0 0 C0.66 0.33 1.32 0.66 2 1 C2 1.99 2 2.98 2 4 C-0.18537367 4.50921328 -2.37342431 5.00694437 -4.5625 5.5 C-5.78066406 5.7784375 -6.99882813 6.056875 -8.25390625 6.34375 C-11.92222707 6.98637554 -15.28502603 7.11474823 -19 7 C-19 6.01 -19 5.02 -19 4 C-14.00975115 1.84205455 -9.71394066 1.89228675 -4.390625 2.125 C-1.8113613 2.25750775 -1.8113613 2.25750775 0 0 Z " fill="#3A2B75" transform="translate(115,17)"/>
<path d="M0 0 C0 0.99 0 1.98 0 3 C-0.61520508 3.20157715 -1.23041016 3.4031543 -1.86425781 3.61083984 C-4.66055921 4.52905198 -7.45528393 5.45197451 -10.25 6.375 C-11.21808594 6.69210938 -12.18617187 7.00921875 -13.18359375 7.3359375 C-14.11816406 7.6453125 -15.05273438 7.9546875 -16.015625 8.2734375 C-16.87446289 8.55622559 -17.73330078 8.83901367 -18.61816406 9.13037109 C-21.00363069 9.92685727 -21.00363069 9.92685727 -23.06152344 11.17041016 C-25.45477079 12.19462357 -26.59419371 11.85921653 -29 11 C-2.9252669 -1.46263345 -2.9252669 -1.46263345 0 0 Z " fill="#655B8E" transform="translate(72,30)"/>
<path d="M0 0 C2.875 -0.125 2.875 -0.125 6 0 C8 2 8 2 8.1875 4.5625 C8 7 8 7 7 8 C4.66702567 8.04092937 2.33294775 8.04241723 0 8 C0 5.36 0 2.72 0 0 Z " fill="#F1F1F0" transform="translate(73,58)"/>
<path d="M0 0 C0.99 0.103125 1.98 0.20625 3 0.3125 C3.66 1.3025 4.32 2.2925 5 3.3125 C2.36 2.9825 -0.28 2.6525 -3 2.3125 C-3 3.9625 -3 5.6125 -3 7.3125 C-2.01 7.3125 -1.02 7.3125 0 7.3125 C0 6.3225 0 5.3325 0 4.3125 C1.65 4.3125 3.3 4.3125 5 4.3125 C4.67 5.9625 4.34 7.6125 4 9.3125 C-2.15234375 9.41015625 -2.15234375 9.41015625 -4 9.3125 C-5 8.3125 -5 8.3125 -5.1875 5.375 C-4.93144601 1.19278491 -4.15839777 0.43316643 0 0 Z " fill="#8E88A8" transform="translate(202,71.6875)"/>
<path d="M0 0 C1.65 0 3.3 0 5 0 C4.67 0.66 4.34 1.32 4 2 C3.01 2 2.02 2 1 2 C0.67 2.66 0.34 3.32 0 4 C0.66 4 1.32 4 2 4 C1.67 5.32 1.34 6.64 1 8 C0.67 7.34 0.34 6.68 0 6 C-0.6496875 7.794375 -0.6496875 7.794375 -1.3125 9.625 C-2.6529584 13.21232201 -4.21821184 16.60611779 -6 20 C-6.33 19.01 -6.66 18.02 -7 17 C-7.66 16.67 -8.32 16.34 -9 16 C-8.34 16 -7.68 16 -7 16 C-6.89816406 15.29488281 -6.79632813 14.58976562 -6.69140625 13.86328125 C-5.90085188 10.58940355 -4.59476266 8.11415533 -2.9375 5.1875 C-2.11572266 3.72376953 -2.11572266 3.72376953 -1.27734375 2.23046875 C-0.85582031 1.49441406 -0.43429688 0.75835937 0 0 Z " fill="#5C5957" transform="translate(241,47)"/>
<path d="M0 0 C2.46800047 1.15173355 4.04783565 2.04783565 6 4 C5.8125 6.5 5.8125 6.5 5 9 C1.68629 11.20914 0.6553979 11.22481553 -3.1875 11.125 C-4.08855469 11.10695313 -4.98960938 11.08890625 -5.91796875 11.0703125 C-6.60503906 11.04710938 -7.29210937 11.02390625 -8 11 C-8 10.67 -8 10.34 -8 10 C-4.535 9.505 -4.535 9.505 -1 9 C-0.84850702 5.37114676 -0.84850702 5.37114676 -2 2 C-1.01 2 -0.02 2 1 2 C0.67 1.34 0.34 0.68 0 0 Z " fill="#423E3C" transform="translate(81,56)"/>
<path d="M0 0 C1.30324219 -0.00386719 1.30324219 -0.00386719 2.6328125 -0.0078125 C4.875 0.125 4.875 0.125 6.875 1.125 C6.875 1.785 6.875 2.445 6.875 3.125 C5.85019531 3.06699219 4.82539063 3.00898437 3.76953125 2.94921875 C2.40889989 2.90230043 1.04821904 2.85680248 -0.3125 2.8125 C-0.98603516 2.77060547 -1.65957031 2.72871094 -2.35351562 2.68554688 C-6.24352098 2.5906687 -7.94353007 2.98600175 -11.0625 5.375 C-13.0519018 8.02753574 -13.77318756 9.20602199 -13.9375 12.4375 C-13.999375 13.654375 -14.06125 14.87125 -14.125 16.125 C-14.455 16.125 -14.785 16.125 -15.125 16.125 C-16.03454127 7.45067126 -16.03454127 7.45067126 -13.9296875 4.3828125 C-9.50717969 0.62701441 -5.6036738 -0.01672738 0 0 Z " fill="#595654" transform="translate(137.125,45.875)"/>
<path d="M0 0 C2.31 0 4.62 0 7 0 C7.625 2.375 7.625 2.375 8 5 C6 7 6 7 2.875 7.125 C1.451875 7.063125 1.451875 7.063125 0 7 C0 4.69 0 2.38 0 0 Z " fill="#F1F1F1" transform="translate(73,49)"/>
<path d="M0 0 C1.65 0.33 3.3 0.66 5 1 C5.625 2.875 5.625 2.875 6 5 C5.34 5.66 4.68 6.32 4 7 C0.70285207 6.67028521 -0.6226839 6.3773161 -3 4 C-2.01 2.68 -1.02 1.36 0 0 Z " fill="#3E2E76" transform="translate(193,84)"/>
<path d="M0 0 C2.97 0 5.94 0 9 0 C9 0.66 9 1.32 9 2 C6.69 2 4.38 2 2 2 C2 2.66 2 3.32 2 4 C3.98 4 5.96 4 8 4 C8 4.33 8 4.66 8 5 C6.02 5 4.04 5 2 5 C2 5.99 2 6.98 2 8 C4.31 8 6.62 8 9 8 C9 8.33 9 8.66 9 9 C6.03 9 3.06 9 0 9 C0 6.03 0 3.06 0 0 Z " fill="#7D7698" transform="translate(83,72)"/>
<path d="M0 0 C0.99 0.27714844 1.98 0.55429688 3 0.83984375 C9.63276937 2.66945747 16.11705055 4.43812658 23 5 C19.82713038 7.24744931 17.19900946 7.1356435 13.4375 6.55859375 C8.50709465 5.42870919 3.75649068 3.70440916 -1 2 C-0.67 1.34 -0.34 0.68 0 0 Z " fill="#838280" transform="translate(30,92)"/>
<path d="M0 0 C0.5534764 2.07553648 1 3.84365964 1 6 C-1.09956889 7.49926962 -3.1728609 8.85646023 -5.375 10.1875 C-5.97828125 10.56841797 -6.5815625 10.94933594 -7.203125 11.34179688 C-8.76219952 12.29629694 -10.37849474 13.15590022 -12 14 C-12.66 13.67 -13.32 13.34 -14 13 C-13.32453125 12.48050781 -12.6490625 11.96101563 -11.953125 11.42578125 C-11.06109375 10.72839844 -10.1690625 10.03101563 -9.25 9.3125 C-8.36828125 8.62800781 -7.4865625 7.94351563 -6.578125 7.23828125 C-4.01771584 5.01538057 -2.02943654 2.70749594 0 0 Z " fill="#514580" transform="translate(269,51)"/>
<path d="M0 0 C2.46800047 1.15173355 4.04783565 2.04783565 6 4 C6.33 2.68 6.66 1.36 7 0 C7.66 0 8.32 0 9 0 C9 2.64 9 5.28 9 8 C6.53199953 6.84826645 4.95216435 5.95216435 3 4 C2.67 5.32 2.34 6.64 2 8 C1.34 8 0.68 8 0 8 C0 5.36 0 2.72 0 0 Z " fill="#685E8C" transform="translate(132,73)"/>
<path d="M0 0 C0.66 0 1.32 0 2 0 C2 1.32 2 2.64 2 4 C3.98 4 5.96 4 8 4 C8 2.68 8 1.36 8 0 C8.66 0 9.32 0 10 0 C10 2.97 10 5.94 10 9 C9.34 9 8.68 9 8 9 C8 7.68 8 6.36 8 5 C6.02 5 4.04 5 2 5 C2 6.32 2 7.64 2 9 C1.34 9 0.68 9 0 9 C0 6.03 0 3.06 0 0 Z " fill="#7A729A" transform="translate(115,72)"/>
<path d="M0 0 C1.9375 0.375 1.9375 0.375 4 1 C5.38125018 3.76250036 5.19079306 5.94731099 5 9 C4.34 9.66 3.68 10.32 3 11 C2.34 11 1.68 11 1 11 C1 8.36 1 5.72 1 3 C0.34 3 -0.32 3 -1 3 C-0.67 2.01 -0.34 1.02 0 0 Z " fill="#251F1C" transform="translate(242,48)"/>
<path d="M0 0 C-0.99 0.33 -1.98 0.66 -3 1 C-2.01 1.66 -1.02 2.32 0 3 C-1.91345327 3.53251766 -3.8309295 4.05059483 -5.75 4.5625 C-6.81734375 4.85253906 -7.8846875 5.14257812 -8.984375 5.44140625 C-11.84335927 5.97098494 -13.31597383 5.98370862 -16 5 C-4.60227273 -1.70454545 -4.60227273 -1.70454545 0 0 Z " fill="#5D518A" transform="translate(85,26)"/>
<path d="M0 0 C2.97 0.495 2.97 0.495 6 1 C6 1.66 6 2.32 6 3 C4.35 3 2.7 3 1 3 C3.475 3.99 3.475 3.99 6 5 C6 6.32 6 7.64 6 9 C3.69 9 1.38 9 -1 9 C-1 8.01 -1 7.02 -1 6 C0.98 6.66 2.96 7.32 5 8 C4.10664203 5.64214682 4.10664203 5.64214682 0.9375 4.875 C-0.5165625 4.441875 -0.5165625 4.441875 -2 4 C-1.34 2.68 -0.68 1.36 0 0 Z " fill="#777095" transform="translate(241,72)"/>
<path d="M0 0 C3.625 0.375 3.625 0.375 7 1 C7 1.66 7 2.32 7 3 C4.69 2.67 2.38 2.34 0 2 C0.33 3.65 0.66 5.3 1 7 C2.98 6.67 4.96 6.34 7 6 C6.67 6.99 6.34 7.98 6 9 C3.66705225 9.04241723 1.33297433 9.04092937 -1 9 C-2 8 -2 8 -2.1875 5.0625 C-2 2 -2 2 0 0 Z " fill="#7C7499" transform="translate(101,72)"/>
<path d="M0 0 C1.2065625 0.0309375 1.2065625 0.0309375 2.4375 0.0625 C2.81968767 1.71864657 3.15145102 3.38707024 3.4375 5.0625 C2.4375 6.0625 2.4375 6.0625 -0.125 6.125 C-1.3315625 6.0940625 -1.3315625 6.0940625 -2.5625 6.0625 C-2.94468767 4.40635343 -3.27645102 2.73792976 -3.5625 1.0625 C-2.5625 0.0625 -2.5625 0.0625 0 0 Z " fill="#F1F0F4" transform="translate(184.5625,73.9375)"/>
<path d="M0 0 C1.2065625 0.0309375 1.2065625 0.0309375 2.4375 0.0625 C2.7675 1.7125 3.0975 3.3625 3.4375 5.0625 C1.4575 5.3925 -0.5225 5.7225 -2.5625 6.0625 C-2.94468767 4.40635343 -3.27645102 2.73792976 -3.5625 1.0625 C-2.5625 0.0625 -2.5625 0.0625 0 0 Z " fill="#F1EFF4" transform="translate(153.5625,73.9375)"/>
<path d="M0 0 C2.64 0 5.28 0 8 0 C7.3125 2.4375 7.3125 2.4375 6 5 C3.4375 5.875 3.4375 5.875 1 6 C0 5 0 5 -0.0625 2.4375 C-0.041875 1.633125 -0.02125 0.82875 0 0 Z " fill="#F3F2F5" transform="translate(101,74)"/>
<path d="M0 0 C0 0.99 0 1.98 0 3 C0.66 3.66 1.32 4.32 2 5 C-1.06533164 6.53266582 -4.26754272 6.10276471 -7.625 6.0625 C-8.33140625 6.05798828 -9.0378125 6.05347656 -9.765625 6.04882812 C-11.51045275 6.03703875 -13.255237 6.01910324 -15 6 C-11.40687138 4.0311624 -8.0191867 3.3058952 -4.0234375 2.5625 C-1.7933256 2.1212482 -1.7933256 2.1212482 0 0 Z " fill="#646260" transform="translate(169,62)"/>
<path d="M0 0 C2.50356732 3.75535098 1.9608592 4.86889414 1.125 9.1875 C0.92132813 10.27417969 0.71765625 11.36085938 0.5078125 12.48046875 C0.34023437 13.31191406 0.17265625 14.14335938 0 15 C-0.99 15.33 -1.98 15.66 -3 16 C-2.52013969 10.43109483 -1.70084819 5.32932432 0 0 Z " fill="#44403F" transform="translate(219,52)"/>
<path d="M0 0 C0.66 0.33 1.32 0.66 2 1 C2 1.99 2 2.98 2 4 C-2.40914783 5.10228696 -6.48382401 5.07654536 -11 5 C-11 4.34 -11 3.68 -11 3 C-9.9275 2.87625 -8.855 2.7525 -7.75 2.625 C-4.56296928 2.09382821 -2.77573258 1.43926875 0 0 Z " fill="#28176B" transform="translate(115,17)"/>
<path d="M0 0 C2.97 0 5.94 0 9 0 C9 0.66 9 1.32 9 2 C7.68 2 6.36 2 5 2 C5 4.31 5 6.62 5 9 C4.34 9 3.68 9 3 9 C3 6.69 3 4.38 3 2 C2.01 2 1.02 2 0 2 C0 1.34 0 0.68 0 0 Z " fill="#817A9C" transform="translate(68,72)"/>
<path d="M0 0 C0.33 0.66 0.66 1.32 1 2 C1.66 2 2.32 2 3 2 C2.00224927 4.99325219 0.92763362 6.5533881 -1 9 C-1.556875 9.7425 -2.11375 10.485 -2.6875 11.25 C-3.120625 11.8275 -3.55375 12.405 -4 13 C-5 10 -5 10 -4.00390625 7.51953125 C-3.52824219 6.62621094 -3.05257812 5.73289062 -2.5625 4.8125 C-2.08941406 3.91144531 -1.61632812 3.01039062 -1.12890625 2.08203125 C-0.75636719 1.39496094 -0.38382813 0.70789062 0 0 Z " fill="#484643" transform="translate(203,49)"/>
<path d="M0 0 C0.33 0.66 0.66 1.32 1 2 C1.66 2.33 2.32 2.66 3 3 C2.29875 3.391875 1.5975 3.78375 0.875 4.1875 C-4.90867521 7.77126745 -4.90867521 7.77126745 -9 13 C-9.66 13 -10.32 13 -11 13 C-9.56177525 9.58139248 -7.78464276 7.72092162 -4.9375 5.375 C-2.02124288 3.04514448 -2.02124288 3.04514448 0 0 Z " fill="#5C595E" transform="translate(28,49)"/>
<path d="M0 0 C2.23551759 3.35327639 2.17283528 3.90743657 1.625 7.6875 C1.51414063 8.49574219 1.40328125 9.30398437 1.2890625 10.13671875 C1.19367188 10.75160156 1.09828125 11.36648437 1 12 C0.01 12 -0.98 12 -2 12 C-1.34 8.04 -0.68 4.08 0 0 Z " fill="#5A5756" transform="translate(181,56)"/>
<path d="M0 0 C1.65 0 3.3 0 5 0 C4.625 2.9375 4.625 2.9375 4 6 C3.01 6.495 3.01 6.495 2 7 C2 6.01 2 5.02 2 4 C1.34 4 0.68 4 0 4 C0 2.68 0 1.36 0 0 Z " fill="#231D1C" transform="translate(204,47)"/>
<path d="M0 0 C2.875 -0.125 2.875 -0.125 6 0 C6.66 0.66 7.32 1.32 8 2 C6.35 2 4.7 2 3 2 C3 2.99 3 3.98 3 5 C2.01 5 1.02 5 0 5 C0 3.35 0 1.7 0 0 Z " fill="#F3F2F5" transform="translate(199,74)"/>
<path d="M0 0 C2.45862401 -0.05383848 4.9160755 -0.09359038 7.375 -0.125 C8.42300781 -0.15013672 8.42300781 -0.15013672 9.4921875 -0.17578125 C11.32897486 -0.19344267 13.16601963 -0.10303261 15 0 C15.66 0.66 16.32 1.32 17 2 C16.01 2.33 15.02 2.66 14 3 C13.34 2.67 12.68 2.34 12 2 C9.72367276 1.96976415 7.46577282 2.06648382 5.19140625 2.16015625 C3 2 3 2 0 0 Z " fill="#3F3B39" transform="translate(153,47)"/>
<path d="M0 0 C0.66 0.66 1.32 1.32 2 2 C0.68 4.64 -0.64 7.28 -2 10 C-2.66 8.68 -3.32 7.36 -4 6 C-2.68 4.02 -1.36 2.04 0 0 Z " fill="#6E6C6A" transform="translate(16,61)"/>
<path d="M0 0 C1.65 0 3.3 0 5 0 C4.67 0.66 4.34 1.32 4 2 C3.01 2 2.02 2 1 2 C0.67 2.66 0.34 3.32 0 4 C0.66 4 1.32 4 2 4 C1.67 5.32 1.34 6.64 1 8 C0.01 7.01 -0.98 6.02 -2 5 C-1.34 3.35 -0.68 1.7 0 0 Z " fill="#514E4C" transform="translate(241,47)"/>
<path d="M0 0 C0 0.66 0 1.32 0 2 C-6.28571429 4.42857143 -6.28571429 4.42857143 -10 3 C-6.64781163 0.76520776 -4.01177204 0 0 0 Z " fill="#31216D" transform="translate(79,28)"/>
<path d="M0 0 C0.99 0.33 1.98 0.66 3 1 C3.6875 3.0625 3.6875 3.0625 4 5 C3.01 5 2.02 5 1 5 C0.34 5.99 -0.32 6.98 -1 8 C-0.67 5.36 -0.34 2.72 0 0 Z " fill="#C6C5C4" transform="translate(221,53)"/>
<path d="M0 0 C2.08954032 4.17908064 2.16552619 4.80410573 1 9 C0.34 9 -0.32 9 -1 9 C-0.67 6.03 -0.34 3.06 0 0 Z " fill="#615F5E" transform="translate(217,59)"/>
<path d="M0 0 C2.76223278 2.76223278 2.57856291 5.20706617 3 9 C2.01 7.68 1.02 6.36 0 5 C-0.99 5.495 -0.99 5.495 -2 6 C-1.34 4.02 -0.68 2.04 0 0 Z " fill="#BEBCBA" transform="translate(204,52)"/>
</svg>
